<?xml version="1.0" encoding="utf-8"?>
<!-- Generator: Adobe Illustrator 24.3.0, SVG Export Plug-In . SVG Version: 6.00 Build 0)  -->
<svg version="1.1" xmlns="http://www.w3.org/2000/svg" xmlns:xlink="http://www.w3.org/1999/xlink" x="0px" y="0px"
	 viewBox="0 0 1122 1122" style="enable-background:new 0 0 1122 1122;" xml:space="preserve">
<style type="text/css">
	.st0{display:none;}
	.st1{display:inline;fill:#ECECED;}
	.st2{fill:#65451F;stroke:#C8AE7D;stroke-width:14;stroke-miterlimit:10;}
	.st3{display:inline;fill:#773300;}
	.st4{display:inline;}
	.st5{fill:#773300;}
	.st6{display:inline;fill:#362D28;}
</style>
<g id="BG_1_" class="st0">
	<rect class="st1" width="1122" height="1122"/>
</g>
<g id="Object">
	<path class="st2" d="M906.72,160.36h-50.63v-54.37c0-12.84-10.45-23.29-23.29-23.29H282.11c-12.84,0-23.29,10.45-23.29,23.29v54.37
		h-43.54c-14.5,0-26.3,11.8-26.3,26.3v127.44c0,14.5,11.8,26.3,26.3,26.3h51.15l4.64,54.18c-19.73,6.28-32.54,18.76-30.67,32.68
		l62.93,468.56c0.92,6.88,5.36,13.14,12.21,18.26l6.03,70.47c2.63,30.7,30.92,54.75,64.42,54.75h362.29
		c34.35,0,62.7-24.7,64.53-56.25l3.88-66.92c8.87-5.65,14.54-13.01,15.29-21.17l42.63-468.56c1.17-12.88-10.17-24.36-27.73-30.77
		l3.2-55.24h56.65c14.5,0,26.3-11.8,26.3-26.3V186.67C933.02,172.16,921.22,160.36,906.72,160.36z M789.37,981.7
		c-1.11,19.14-19.16,34.13-41.09,34.13H385.99c-21.41,0-39.43-14.62-41.03-33.28l-4.94-57.67c7.07,1.69,14.79,2.63,22.88,2.63H772.3
		c7.14,0,13.97-0.76,20.34-2.08L789.37,981.7z M544.87,686.02c28.86,40.31,35.14,81.8,11.48,126.09c-5.68,10.64-12.9,14.46-25.72,14
		c-41.15-1.49-67.42-22.97-83.02-53.98c-33.3-66.18-32.78-133.51,2.27-199.12c16.75-31.35,44.05-52.5,90.08-53.95
		c-4.92,15.81-8.15,29.12-13.2,41.84C509.05,605.53,516.95,647.02,544.87,686.02z M579.36,692.83
		c-44.34-51.48-41.31-105.67-19.1-163.06c5.3-13.7,12.59-15.58,25.95-12.46c29.3,6.84,50.92,23.19,65.05,46.22
		c43.13,70.25,41.54,140.91-2.91,210.12c-14.8,23.04-36.83,39.79-69.31,47.29c5.1-14.22,8.64-24.9,12.74-35.41
		C604.61,752.73,603.05,720.34,579.36,692.83z M823.64,390.69c-2.85-0.24-5.74-0.41-8.71-0.41H299.98c-1.93,0-3.82,0.07-5.7,0.17
		l-4.28-50.05h536.57L823.64,390.69z"/>
	<g class="st0">
		<path class="st3" d="M497.71,792.86h-36.7c4.83-2.85,9.37-6.37,13.48-10.54c6.32,0.16,13.82-2.25,20.67-6.65
			c6.09-3.92,10.98-8.95,13.76-14.16c2.91-5.46,3.19-10.52,0.8-14.24c-2.64-4.11-8.28-5.91-15.31-4.98c0.28-1.76,0.5-3.52,0.66-5.24
			c0.19-2.16-0.51-4.23-1.99-5.85c-1.5-1.64-3.63-2.58-5.85-2.58H373.18c-2.22,0-4.35,0.94-5.85,2.58
			c-1.48,1.62-2.18,3.69-1.99,5.85c2.21,24.48,15.38,44.92,33.91,55.81H362.7h-23.83c4.3-3.58,6.47-9.26,6.5-17.09
			c0.04-13.47-0.1-26.94,0.12-40.4c0.03-2.07,0.98-4.85,2.49-6.06c8.34-6.64,13.43-15.25,16.66-25.19
			c1.16-3.56,2.04-7.26,3.58-10.65c4.35-9.61,9.6-18.49,20.32-22.48c1.36-0.51,3.06-2.27,3.1-3.49c0.04-1.1-1.83-2.56-3.16-3.34
			c-2.64-1.55-5.52-2.67-8.24-4.08c-7.79-4.04-14.71-4.14-21.06,3.13c-3.7,4.24-8.41,7.59-12.64,11.33
			c-0.76-0.87-0.95-0.99-0.95-1.1c-0.09-10.39-0.04-20.79-0.26-31.17c-0.22-10.01-7.34-17.82-16.87-18.64
			c-3.05-0.26-6.13-0.09-9.2-0.1c-4.96-0.01-9.91,0-15.42,0c5.66-8.93,5.53-14.37,0.15-19.1c-5.52-4.85-15.15-4.99-20.83-0.29
			c-5.66,4.69-5.92,10.09-0.71,18.84c-0.5,0.25-0.64,0.39-0.79,0.39c-7.15,0.06-14.31,0.04-21.46,0.17
			c-9.08,0.17-16.51,5.79-18.1,14.34c-0.66,3.56-2.45,5.1-5.34,6.58c-11.85,6.07-21.01,14.76-21.57,28.8
			c-0.33,8.17,0.73,16.78,3.1,24.6c4.19,13.83,9.9,27.19,14.9,40.78c4.48,12.19,8.46,24.47,8.26,37.72
			c-0.11,7.33,2.15,12.92,6.41,16.5h-49.89h-39.75v3.05c0,6.25,5.07,11.32,11.32,11.32h39.75h72.63h0.38h39.38h52.34h20.66h30.97
			h60.75h51.63c6.25,0,11.32-5.07,11.32-11.32v-3.05H497.71z M240.6,713.82c-0.89-1.25-1.62-1.99-2.02-2.88
			c-4.67-10.33-7.89-21.05-7.67-32.51c0.15-8.08,2.89-11.94,9.7-13.65C240.6,681.18,240.6,697.12,240.6,713.82z M252.99,645.2
			c0-0.39,0.32-0.72,0.72-0.72h3.64c0.39,0,0.72,0.32,0.72,0.72v119.08c0,0.39-0.32,0.72-0.72,0.72h-3.64
			c-0.39,0-0.72-0.32-0.72-0.72V645.2z M255.52,772.27c1.85,0,3.35,1.5,3.35,3.35c0,1.85-1.5,3.35-3.35,3.35
			c-1.85,0-3.35-1.5-3.35-3.35C252.18,773.77,253.67,772.27,255.52,772.27z M405.99,784.34c-1.12,0-2.04-0.91-2.04-2.04
			c0-1.12,0.91-2.04,2.04-2.04c1.12,0,2.04,0.91,2.04,2.04C408.03,783.43,407.12,784.34,405.99,784.34z M481.53,773.95
			c5.07-7.09,8.91-15.26,11.22-23.85c4.82-1.12,8.62-0.51,10.01,1.65c2.26,3.52-1.85,11.48-11.57,17.73
			C488,771.52,484.67,773.05,481.53,773.95z M397.68,775.38c-0.05,0.5-0.33,0.95-0.76,1.23c-0.68,0.44-1.55,0.35-2.12-0.22
			c-3.58-3.54-12.62-14.2-19.23-36.56c-0.15-0.5-0.05-1.03,0.27-1.46c0.33-0.44,0.83-0.69,1.38-0.69h1.51
			c0.81,0,1.51,0.57,1.66,1.35c1.34,6.75,5.66,23.67,16.82,34.98C397.56,774.37,397.74,774.87,397.68,775.38z"/>
		<polygon class="st3" points="170.35,922.47 173.29,922.5 173.32,918.06 179.42,918.11 179.23,942.5 175.35,942.47 175.33,945.24 
			186.42,945.32 186.44,942.55 182.56,942.52 182.74,918.13 188.84,918.18 188.81,922.61 191.75,922.64 191.8,915.43 170.4,915.27 
					"/>
		<path class="st3" d="M214.97,915.33l-3.22-0.02l-9.13,27.37l-2.77-0.02l-0.02,2.77l8.87,0.07l0.02-2.77l-2.94-0.02l2.67-8.29
			l9.26,0.07l2.65,8.34l-2.77-0.02l-0.02,2.77l8.87,0.07l0.02-2.77l-2.61-0.02L214.97,915.33z M209.31,931.64l3.75-11.61l0.11,0
			l3.68,11.67L209.31,931.64z"/>
		<polygon class="st3" points="243.94,918.6 247.27,918.62 247.29,915.85 237.31,915.78 237.29,918.55 240.61,918.57 240.43,942.96 
			237.1,942.94 237.08,945.71 247.06,945.78 247.08,943.01 243.75,942.99 		"/>
		<polygon class="st3" points="248.07,929.94 258.35,918.71 261.12,918.73 261.15,915.96 252.28,915.89 252.26,918.66 
			254.58,918.68 254.58,918.79 244.13,930.18 254.34,942.96 254.34,943.07 252.07,943.05 252.05,945.82 262.03,945.9 262.05,943.13 
			258.67,943.1 		"/>
		<polygon class="st3" points="289.71,943.34 279.34,943.26 279.43,932.17 284.97,932.22 284.94,935.54 287.71,935.56 
			287.78,926.69 285.01,926.67 284.99,929.44 279.45,929.4 279.53,918.87 289.34,918.94 289.31,922.82 292.25,922.85 292.3,916.2 
			272.9,916.05 272.88,918.82 276.2,918.84 276.02,943.23 272.69,943.21 272.67,945.98 292.62,946.13 292.67,939.48 289.74,939.46 
					"/>
		<path class="st3" d="M335.7,916.25l-3.22-0.03l-9.13,27.37l-2.77-0.02l-0.02,2.77l8.87,0.07l0.02-2.77l-2.94-0.02l2.67-8.3
			l9.26,0.07l2.65,8.34l-2.77-0.02l-0.02,2.77l8.87,0.07l0.02-2.77l-2.61-0.02L335.7,916.25z M330.03,932.56l3.75-11.61l0.11,0
			l3.68,11.67L330.03,932.56z"/>
		<path class="st3" d="M390.58,930.69l0-0.11c1.59-0.54,2.75-1.37,3.48-2.5c0.73-1.12,1.1-2.46,1.11-4.01
			c0.02-2.29-0.76-4.05-2.34-5.28c-1.58-1.23-4.03-1.86-7.36-1.88l-10.14-0.08l-0.02,2.77l3.33,0.03l-0.19,24.39l-3.33-0.03
			l-0.02,2.77l10.09,0.08c3.73,0.03,6.5-0.73,8.3-2.26c1.8-1.54,2.72-3.67,2.74-6.41c0.01-1.81-0.44-3.38-1.35-4.72
			C393.97,932.1,392.54,931.19,390.58,930.69z M381.96,919.65l3.27,0.03c2.25,0.02,3.9,0.4,4.93,1.15c1.03,0.75,1.54,1.99,1.52,3.73
			c-0.03,3.44-2.11,5.14-6.25,5.11l-3.55-0.03L381.96,919.65z M390.85,942.75c-1.21,0.9-3.05,1.34-5.53,1.32l-3.55-0.03l0.09-11.64
			l3.82,0.03c2.44,0.02,4.22,0.49,5.34,1.43c1.12,0.93,1.67,2.36,1.66,4.28C392.67,940.32,392.06,941.85,390.85,942.75z"/>
		<path class="st3" d="M425.95,937.67c-0.87-1.67-1.61-2.81-2.19-3.43c-0.59-0.61-1.14-1.07-1.65-1.37l0-0.11
			c4.66-0.96,7.01-3.64,7.05-8.04c0.02-2.48-0.76-4.35-2.34-5.62c-1.58-1.27-4.09-1.92-7.52-1.94l-9.64-0.07l-0.02,2.77l2.94,0.02
			l-0.19,24.39l-3.33-0.03l-0.02,2.77l9.98,0.08l0.02-2.77l-3.33-0.03l0.08-11.09l1.39,0.01c0.89,0.01,1.61,0.22,2.16,0.63
			c0.55,0.45,1.05,1.01,1.48,1.67c0.44,0.67,1.02,1.65,1.75,2.95l2.02,3.84c0.36,0.67,0.75,1.39,1.15,2.17
			c0.4,0.78,0.82,1.67,1.25,2.67l5.32,0.04l0.02-2.77l-2.77-0.02L425.95,937.67z M418.47,930.46l-2.66-0.02l0.08-10.53l3.05,0.02
			c2.33,0.02,4.03,0.4,5.12,1.15c1.08,0.75,1.62,2.06,1.6,3.95c-0.01,1.92-0.63,3.31-1.83,4.17
			C422.62,930.06,420.83,930.48,418.47,930.46z"/>
		<polygon class="st3" points="459.99,944.63 449.62,944.56 449.71,933.47 455.25,933.51 455.23,936.84 458,936.86 458.07,927.99 
			455.29,927.97 455.27,930.74 449.73,930.7 449.81,920.17 459.62,920.24 459.59,924.12 462.53,924.14 462.58,917.49 443.18,917.34 
			443.16,920.11 446.48,920.14 446.3,944.53 442.97,944.5 442.95,947.28 462.91,947.43 462.96,940.78 460.02,940.75 		"/>
		<path class="st3" d="M488.69,917.41l-3.21-0.02l-9.13,27.37l-2.77-0.02l-0.02,2.77l8.87,0.07l0.02-2.77l-2.94-0.02l2.67-8.29
			l9.26,0.07l2.65,8.34l-2.77-0.02l-0.02,2.77l8.87,0.07l0.02-2.77l-2.6-0.02L488.69,917.41z M483.02,933.72l3.75-11.61l0.11,0
			l3.68,11.67L483.02,933.72z"/>
		<polygon class="st3" points="521.78,932.02 532.07,920.79 534.84,920.81 534.86,918.04 525.99,917.97 525.97,920.75 528.3,920.76 
			528.3,920.87 517.85,932.27 528.06,945.04 528.06,945.15 525.79,945.14 525.77,947.91 535.74,947.98 535.76,945.21 532.38,945.19 
					"/>
		<polygon class="st3" points="517.66,920.68 520.98,920.71 521,917.94 511.03,917.86 511.01,920.63 514.33,920.66 514.15,945.05 
			510.82,945.02 510.8,947.79 520.78,947.87 520.8,945.1 517.47,945.07 		"/>
		<path class="st3" d="M457.01,696.29c3.06,4.08,2.77,9.75-0.69,13.5l-5.37,5.82l2.28,2.1l5.37-5.82
			c4.47-4.84,4.85-12.19,0.89-17.46l-6.81-9.08c-2.94-3.92-2.81-9.29,0.31-13.07l6.42-7.76c4.04-4.88,4.21-11.83,0.4-16.9
			l-6.49-8.65l-2.48,1.86l6.49,8.65c2.94,3.92,2.81,9.29-0.31,13.07l-6.42,7.76c-4.04,4.88-4.21,11.83-0.4,16.9L457.01,696.29z"/>
		<path class="st3" d="M440.32,696.29c3.06,4.08,2.77,9.75-0.69,13.5l-5.37,5.82l2.28,2.1l5.37-5.82
			c4.47-4.84,4.84-12.19,0.89-17.46l-6.81-9.08c-2.94-3.92-2.81-9.29,0.31-13.07l6.42-7.76c4.04-4.88,4.21-11.83,0.4-16.9
			l-6.49-8.65l-2.48,1.86l6.49,8.65c2.94,3.92,2.81,9.29-0.31,13.07l-6.42,7.76c-4.04,4.88-4.21,11.83-0.4,16.9L440.32,696.29z"/>
		<path class="st3" d="M418.53,696.29c3.06,4.08,2.77,9.75-0.69,13.5l-5.37,5.82l2.28,2.1l5.37-5.82
			c4.47-4.84,4.85-12.19,0.89-17.46l-6.81-9.08c-2.94-3.92-2.81-9.29,0.31-13.07l6.42-7.76c4.04-4.88,4.21-11.83,0.4-16.9
			l-6.49-8.65l-2.48,1.86l6.49,8.65c2.94,3.92,2.81,9.29-0.31,13.07l-6.42,7.76c-4.04,4.88-4.21,11.83-0.4,16.9L418.53,696.29z"/>
		<path class="st3" d="M188.9,898.55c0.09,0,0.17,0,0.26,0c5.88,0,11.76-1.55,17.49-4.61l0.77-0.41l0.07-9.52l-2.13,1.05
			c-5.84,2.88-11.2,4.35-16.05,4.29c-5.63-0.04-9.88-1.99-12.99-5.94c-3.14-4-4.71-10.35-4.64-18.87c0.06-8.15,1.64-14.22,4.7-18.07
			c3.01-3.78,7.22-5.63,12.84-5.56c3.6,0.03,6.76,0.51,9.41,1.45l-0.07,9.46l9.17,0.07l0.12-15.9l-0.89-0.39
			c-5.89-2.55-11.75-3.86-17.44-3.9c-8.35-0.09-15.17,2.94-20.25,8.93c-5.01,5.91-7.59,14.08-7.67,24.28
			c-0.08,10.27,2.32,18.49,7.12,24.44C173.6,895.39,180.39,898.48,188.9,898.55z"/>
		<path class="st3" d="M256.27,899.06c0.07,0,0.14,0,0.22,0c7.61,0,13.81-3.07,18.43-9.12c4.57-5.98,6.93-14.4,7.01-25.02
			c0.08-10.01-2-18-6.17-23.74c-4.27-5.88-10.35-8.89-18.07-8.95c-7.84-0.02-14.2,2.95-18.87,8.93c-4.57,5.87-6.93,14-7.01,24.18
			c-0.08,10.32,2.09,18.56,6.46,24.49C242.73,895.9,248.79,899,256.27,899.06z M246.07,846.88c2.61-3.67,6.22-5.45,11.05-5.45
			c0.05,0,0.1,0,0.15,0c4.81,0.04,8.34,1.92,10.81,5.75c2.56,3.98,3.82,10.04,3.76,18c-0.06,8.27-1.5,14.57-4.27,18.74
			c-2.68,4.03-6.23,5.96-10.9,5.93c-4.66-0.04-8.19-2.03-10.81-6.1c-2.71-4.21-4.05-10.49-3.99-18.69
			C241.95,856.82,243.36,850.7,246.07,846.88z"/>
		<polygon class="st3" points="306.28,842.37 313.08,842.42 312.72,889.71 305.92,889.66 305.85,898.3 330.33,898.48 330.4,889.85 
			322.46,889.79 322.6,871.03 332.15,871.1 332.1,877.95 340.7,878.02 340.86,856.83 332.26,856.76 332.21,862.47 322.67,862.4 
			322.82,842.5 339.96,842.63 339.9,850.62 348.84,850.69 348.97,834.06 306.34,833.74 		"/>
		<polygon class="st3" points="394.82,862.94 385.27,862.87 385.42,842.97 402.57,843.11 402.51,851.09 411.45,851.16 
			411.57,834.54 368.95,834.21 368.88,842.85 375.69,842.9 375.33,890.19 368.52,890.14 368.46,898.77 392.94,898.96 393,890.32 
			385.06,890.26 385.21,871.51 394.75,871.58 394.7,878.43 403.3,878.49 403.46,857.3 394.86,857.24 		"/>
		<polygon class="st3" points="431.13,890.61 431.06,899.25 474.82,899.58 474.95,882.96 466.01,882.89 465.95,890.88 
			447.67,890.74 447.82,870.84 456.23,870.91 456.18,877.75 464.78,877.82 464.94,856.63 456.34,856.56 456.3,862.27 447.89,862.21 
			448.03,843.45 465.17,843.58 465.11,851.57 474.05,851.64 474.18,835.01 431.56,834.69 431.49,843.33 438.3,843.38 437.93,890.67 
					"/>
		<polygon class="st3" points="531.96,891.38 513.68,891.24 513.83,871.35 522.24,871.41 522.19,878.26 530.79,878.32 
			530.95,857.13 522.35,857.07 522.31,862.77 513.89,862.71 514.04,843.95 531.18,844.08 531.12,852.07 540.06,852.14 
			540.19,835.52 497.56,835.19 497.5,843.83 504.3,843.88 503.94,891.17 497.14,891.12 497.07,899.75 540.83,900.09 540.96,883.46 
			532.02,883.39 		"/>
	</g>
	<g class="st0">
		<g class="st4">
			<path class="st5" d="M771.55,353.44c2.84,1.16,5.25,1.98,7.51,3.1c7.94,3.91,15.79,3.47,23.56-0.37
				c8.03-3.97,15.85-4.14,23.62,0.76c1.87,1.18,2.44,2.47,2.1,4.6c-1.07,6.85-5.56,10.79-11.61,12.74
				c-12.92,4.16-25.4,2.64-36.91-4.62C774.33,366.19,770.93,361.17,771.55,353.44z"/>
			<path class="st5" d="M828.32,353.32c-2.54-1.16-4.45-1.98-6.33-2.89c-5.84-2.84-11.88-3.27-17.44,0.11
				c-10.4,6.32-20.4,4.66-30.62-0.27c-2.44-1.18-2.65-2.44-1.81-4.61c1.83-4.76,5.28-8.03,9.82-9.9
				c13.86-5.72,26.94-3.95,38.93,4.96C824.86,343.68,827.55,347.73,828.32,353.32z"/>
		</g>
		<g class="st4">
			<g>
				<path class="st5" d="M714.31,292.76c0.01-5.39,4.39-9.75,9.74-9.73c3.77,0.01,7.23,1.3,9.96,3.45l-4.68,4.65
					c-1.5-0.99-3.33-1.59-5.3-1.6c-1.8,0-3.26,1.45-3.26,3.24c0,0.77,0.3,1.5,0.76,2.1c1.02,1.16,2.69,1.38,4.32,1.47
					c5.31,0.27,9.36,3.96,9.35,9.44c-0.01,5.35-4.39,9.7-9.74,9.69c-4.37-0.01-8.3-1.73-11.2-4.52l4.59-4.57
					c1.75,1.63,4.06,2.62,6.63,2.63c1.75,0,3.21-1.45,3.22-3.24c0-0.98-0.38-1.97-1.28-2.49c-1.54-0.9-4.11-0.65-5.73-1.04
					C717.45,301.16,714.29,297.34,714.31,292.76z"/>
				<path class="st5" d="M752.58,289.61l-0.07,25.94l-6.51-0.02l0.07-25.94l-9.12-0.02l0.02-6.51l24.74,0.07l-0.02,6.51
					L752.58,289.61z"/>
				<path class="st5" d="M783.81,315.63l-3.27-9.08l-9.97-0.03l-3.32,9.07l-6.89-0.02l11.81-32.41l6.89,0.02l11.64,32.47
					L783.81,315.63z M775.57,292.71l-2.63,7.31l5.26,0.01L775.57,292.71z"/>
				<path class="st5" d="M805.12,289.75l-0.07,25.94l-6.51-0.02l0.07-25.94l-9.12-0.02l0.02-6.51l24.74,0.07l-0.02,6.51
					L805.12,289.75z"/>
				<path class="st5" d="M817.26,283.27l6.46,0.02l-0.09,32.44l-6.46-0.02L817.26,283.27z"/>
				<path class="st5" d="M859.12,299.61c-0.02,8.95-7.32,16.2-16.26,16.18c-8.95-0.02-16.2-7.32-16.18-16.26
					c0.02-8.95,7.32-16.2,16.26-16.18C851.88,283.37,859.14,290.66,859.12,299.61z M833.14,299.54c-0.01,5.39,4.34,9.77,9.73,9.78
					c5.35,0.01,9.73-4.34,9.74-9.73c0.01-5.35-4.34-9.73-9.69-9.74C837.53,289.83,833.15,294.19,833.14,299.54z"/>
				<path class="st5" d="M882.71,283.45l6.46,0.02l-0.09,32.44l-7.53-0.02l-12.96-21.65l-0.06,21.62l-6.46-0.02l0.09-32.44
					l7.58,0.02l12.91,21.69L882.71,283.45z"/>
			</g>
		</g>
		<g class="st4">
			<path class="st5" d="M739.99,241.9c8.65,0,15.7-7.06,15.7-15.77c0-8.65-7.06-15.7-15.71-15.7c-8.72,0-15.77,7.06-15.77,15.71
				C724.21,234.85,731.27,241.9,739.99,241.9z"/>
			<path class="st5" d="M963.5,224.14v-33.08c0-5.77-4.67-10.44-10.44-10.44H650.27c-5.77,0-10.44,4.67-10.44,10.44v34.44
				c0,0.82,0,1.65,0,2.47v33.59h1.01c0.9,2.64,2.57,5.27,4.41,7.09c37.75,37.4,75.8,74.49,113.61,111.83
				c14.58,14.4,28.74,29.23,44.14,44.93l144.43-146.35c3.96-4.01,7.89-8.05,11.9-12.01c1.79-1.77,2.93-3.54,3.61-5.5h0.56v-2.18
				c0.21-1.2,0.31-2.47,0.28-3.85C963.6,245.07,963.54,234.61,963.5,224.14z M939.72,199.9l0,10.52l-21.17,0l0,10.45l21.17,0
				l0,10.52l-21.17,0l0,10.45l21.17,0l0,10.52l-31.62,0l0-52.44L939.72,199.9z M896.34,199.9l0,10.52l-21.17,0l0,10.45l21.17,0
				l0,10.52l-21.17,0l0,10.45l21.17,0l0,10.52l-31.62,0l0-52.44L896.34,199.9z M852.96,199.9l0,10.52l-21.17,0l0,10.45l21.17,0
				l0,10.52l-21.17,0l0,20.96h-10.45l0-52.44L852.96,199.9z M809.58,199.9l0,10.52l-21.17,0l0,10.45l21.17,0l0,10.52l-21.17,0
				l0,20.96l-10.45,0l0-52.44L809.58,199.9z M739.99,199.91c14.46,0,26.22,11.76,26.22,26.22c0,14.46-11.76,26.22-26.22,26.22
				c-14.46,0-26.22-11.76-26.22-26.22C713.77,211.67,725.53,199.91,739.99,199.91z M687.41,199.91c6.99,0,13.35,2.77,18.06,7.26
				l-7.4,7.47c-2.77-2.63-6.57-4.22-10.66-4.22c-8.72,0-15.77,7.06-15.77,15.71c0,8.72,7.06,15.7,15.78,15.7
				c4.08,0,7.89-1.59,10.65-4.15l7.4,7.4c-4.7,4.5-11.07,7.27-18.06,7.27c-14.46,0-26.22-11.76-26.22-26.22
				C661.19,211.67,672.95,199.91,687.41,199.91z M930.08,280.69c-41.87,43.3-84.1,86.97-127.05,131.37
				c-21-21.31-41.77-42.38-62.39-63.3l-76.82-77.94c91.18-0.46,184.68-0.92,277.14-1.38L930.08,280.69z"/>
		</g>
	</g>
	<g class="st0">
		<path class="st6" d="M304.18,280.23c-7.11,0-12.86,5.75-12.86,12.8c0,7.11,5.75,12.86,12.86,12.86c7.05,0,12.8-5.75,12.8-12.86
			C316.98,285.98,311.23,280.23,304.18,280.23z"/>
		<path class="st6" d="M482.12,210.46c-33.33-46.17-88.01-48.11-124.47-4.8c-1.2,1.43-2.1,3.12-3.21,4.79
			c-5.87-6.23-10.48-11.6-15.57-16.44c-22.08-21.01-47.32-25.26-75.36-13.69c-39.74,16.39-60.79,56.15-54.07,102.07
			c5.52,37.75,24.14,68.54,54,91.1c27.71,20.93,57.72,38.82,86.87,57.8c1.69,1.1,5.4,0.9,7.2-0.23
			c25.12-15.75,50.74-30.83,74.88-47.98c30.2-21.46,53.21-49.01,62.58-85.99C502.73,266.47,501.23,236.93,482.12,210.46z
			 M261.32,314.41c-11.79,0-21.37-9.59-21.37-21.37c0-11.79,9.59-21.37,21.37-21.37c5.7,0,10.88,2.25,14.72,5.92l-6.03,6.09
			c-2.26-2.14-5.36-3.44-8.68-3.44c-7.11,0-12.86,5.75-12.86,12.8c0,7.11,5.75,12.8,12.86,12.8c3.33,0,6.43-1.3,8.68-3.38l6.03,6.03
			C272.2,312.15,267.01,314.41,261.32,314.41z M304.18,314.41c-11.79,0-21.37-9.59-21.37-21.37c0-11.79,9.59-21.37,21.37-21.38
			c11.79,0,21.37,9.59,21.37,21.37C325.56,304.82,315.97,314.41,304.18,314.41z M343.66,297.32l0,17.09h-8.52l0-42.75l25.77,0
			l0,8.57l-17.26,0l0,8.52l17.26,0l0,8.57L343.66,297.32z M379.03,314.4l-8.52,0l0-42.75l25.77,0l0,8.57h-17.26l0,8.52l17.26,0
			l0,8.57l-17.26,0L379.03,314.4z M405.88,314.4l0-42.75l25.77,0l0,8.57l-17.26,0l0,8.52l17.26,0l0,8.57h-17.26l0,8.52l17.26,0
			l0,8.57L405.88,314.4z M441.24,314.4l0-42.75l25.77,0l0,8.57l-17.26,0l0,8.52h17.26l0,8.57l-17.26,0l0,8.52h17.26l0,8.57
			L441.24,314.4z"/>
	</g>
</g>
</svg>
